Coordinates
version=1
nRows=4
nColumns=53
inDegrees=yes

Units are S.I. units (second, meters, Newtons, ...)
If the header above contains a line with 'inDegrees', this indicates whether rotational values are in degrees (yes) or radians (no).

endheader
time	pelvis_tilt	pelvis_list	pelvis_rot	pelvis_tx	pelvis_ty	pelvis_tz	hip_flex_r	hip_add_r	hip_rot_r	pf_flex_r	pf_rot_r	pf_tilt_r	pf_tx_r	pf_ty_r	pf_tz_r	knee_flex_r	knee_add_r	knee_rot_r	knee_tx_r	knee_ty_r	knee_tz_r	ankle_flex_r	subt_angle_r	mtp_angle_r	hip_flex_l	hip_add_l	hip_rot_l	pf_l_r3	pf_l_tx	pf_l_ty	knee_flex_l	ankle_flex_l	subt_angle_l	mtp_angle_l	lumbar_ext	lumbar_latbend	lumbar_rot	neck_ext	neck_latbend	neck_rot	arm_add_r	arm_flex_r	arm_rot_r	elbow_flex_r	pro_sup_r	wrist_flex_r	arm_add_l	arm_flex_l	arm_rot_l	elbow_flex_l	pro_sup_l	wrist_flex_l
      6.64000000	     -2.69237277	      6.14960498	      4.53464406	     -0.03963305	      0.88058255	      0.19439523	     31.83400315	    -10.12517134	    -10.72097069	     10.58740033	      0.26458149	     -1.28405266	      0.05143209	     -0.00409675	      0.00425947	     14.65680670	      0.68793283	      1.73766673	      0.00373645	      0.00051011	     -0.00114966	      4.28411569	    -14.03872034	      0.00000000	     -9.73698503	     -7.46719611	     -0.83455127	      0.06513700	      0.04435000	     -0.41871200	      0.19404130	      0.30339284	      0.00145090	      0.00000000	    -11.28663037	     -2.00639876	     -2.47403130	      0.00000000	      0.00000000	      0.00000000	      0.00000000	      0.00000000	      0.00000000	      0.00000000	     60.00000000	      0.00000000	      0.00000000	      0.00000000	      0.00000000	      0.00000000	     60.00000000	      0.00000000
      6.64400000	     -2.87618933	      6.18114056	      4.53287131	     -0.03488243	      0.87996295	      0.19518396	     31.81784226	    -10.09708208	    -10.69981161	     10.59502164	      0.26840643	     -1.27425247	      0.05141617	     -0.00413789	      0.00426098	     14.70650503	      0.69086675	      1.73611822	      0.00373923	      0.00050913	     -0.00114671	      4.26224487	    -14.02458792	      0.00000000	     -9.84185128	     -7.42462203	     -0.83079466	      0.06513700	      0.04435000	     -0.41871200	      0.19511054	      0.30348363	      0.00154907	      0.00000000	    -11.27497412	     -2.04084207	     -2.48910577	      0.00000000	      0.00000000	      0.00000000	      0.00000000	      0.00000000	      0.00000000	      0.00000000	     60.00000000	      0.00000000	      0.00000000	      0.00000000	      0.00000000	      0.00000000	     60.00000000	      0.00000000
      6.64800000	     -3.23940489	      5.67276133	      4.80073426	     -0.03009717	      0.87879785	      0.19550276	     32.40383927	     -9.70215177	    -10.15684560	     10.77172622	      0.35389455	     -1.07292658	      0.05110426	     -0.00504466	      0.00432820	     15.78957212	      0.74857626	      1.69404766	      0.00380888	      0.00046999	     -0.00123130	      3.74750066	    -13.73290904	      0.00000000	     -9.80588622	     -6.74384388	     -0.67878181	      0.06513700	      0.04435000	     -0.41871200	      0.19291729	      0.30770580	      0.00415266	      0.00000000	    -10.67807690	     -2.88499723	     -2.84687945	      0.00000000	      0.00000000	      0.00000000	      0.00000000	      0.00000000	      0.00000000	      0.00000000	     60.00000000	      0.00000000	      0.00000000	      0.00000000	      0.00000000	      0.00000000	     60.00000000	      0.00000000
      6.65200000	     -3.40708344	      5.75216771	      4.75800725	     -0.02546815	      0.87822734	      0.19661624	     32.37742316	     -9.68367192	    -10.16051782	     10.78010307	      0.35784352	     -1.06430080	      0.05108979	     -0.00508519	      0.00433180	     15.83842419	      0.75109668	      1.69184757	      0.00381268	      0.00047027	     -0.00123529	      3.72996231	    -13.73398466	      0.00000000	     -9.89340105	     -6.71013011	     -0.68507424	      0.06513700	      0.04435000	     -0.41871200	      0.19416334	      0.30771758	      0.00432338	      0.00000000	    -10.66269266	     -2.89257495	     -2.85893955	      0.00000000	      0.00000000	      0.00000000	      0.00000000	      0.00000000	      0.00000000	      0.00000000	     60.00000000	      0.00000000	      0.00000000	      0.00000000	      0.00000000	      0.00000000	     60.00000000	      0.00000000
